0
SECTION
2
HEADER
9
$INSUNITS
70
4
0
ENDSEC
0
SECTION
2
TABLES
0
TABLE
2
LTYPE
0
LTYPE
72
65
70
64
2
CONTINUOUS
3
______
73
0
40
0
0
ENDTAB
0
TABLE
2
LAYER
0
ENDTAB
0
ENDSEC
0
SECTION
2
ENTITIES
0
LINE
8
0
10
-10
20
-7.499342
11
-10
21
73.199913
0
LINE
8
0
10
-7.999913
20
75.199913
11
103.000087
21
75.195087
0
LINE
8
0
10
105
20
73.195087
11
105
21
7.9050508
0
LINE
8
0
10
105.0938755
20
7.299502
11
116.0630548
21
-27.228887
0
LINE
8
0
10
116.9691793
20
-28.355389
11
123.2259871
21
-31.9677587
0
LINE
8
0
10
123.9580379
20
-34.6998095
11
116.4580379
21
-47.6901905
0
LINE
8
0
10
81.9847014
20
-30.0964014
11
113.7259871
21
-48.4222413
0
LINE
8
0
10
81.3974146
20
-29.581117
11
66.6002541
21
-10.2780389
0
LINE
8
0
10
65.0133621
20
-9.4948053
11
28.000468
21
-9.4875001
0
LINE
8
0
10
27.9994154
20
-9.4875002
11
-7.9993422
21
-9.4993419
0
ARC
8
0
10
-8
20
73.199913
40
2
50
89.9975076
51
180
0
ARC
8
0
10
103
20
73.195087
40
2
50
0
51
89.9975076
0
ARC
8
0
10
107
20
7.9050508
40
2
50
180
51
197.6243157
0
ARC
8
0
10
117.9691793
20
-26.6233382
40
2
50
197.6243157
51
239.9999999
0
ARC
8
0
10
122.2259871
20
-33.6998095
40
2
50
329.9999999
51
59.9999999
0
ARC
8
0
10
114.7259871
20
-46.6901905
40
2
50
239.9999999
51
329.9999999
0
ARC
8
0
10
82.9847014
20
-28.3643506
40
2
50
217.4726902
51
239.9999999
0
ARC
8
0
10
65.0129673
20
-11.4948053
40
2
50
37.4726902
51
89.9886898
0
ARC
8
0
10
28.0000732
20
-11.4875001
40
2
50
89.9886898
51
90.0188446
0
ARC
8
0
10
-8
20
-7.499342
40
2
50
180
51
270.0188446
0
LINE
8
0
10
-8.75
20
-8.25
11
8.75
21
-8.25
0
LINE
8
0
10
8.75
20
-8.25
11
8.75
21
8.25
0
LINE
8
0
10
8.75
20
8.25
11
-8.75
21
8.25
0
LINE
8
0
10
-8.75
20
8.25
11
-8.75
21
-8.25
0
LINE
8
0
10
-8.75
20
10.8
11
8.75
21
10.8
0
LINE
8
0
10
8.75
20
10.8
11
8.75
21
27.3
0
LINE
8
0
10
8.75
20
27.3
11
-8.75
21
27.3
0
LINE
8
0
10
-8.75
20
27.3
11
-8.75
21
10.8
0
LINE
8
0
10
-8.75
20
29.85
11
8.75
21
29.85
0
LINE
8
0
10
8.75
20
29.85
11
8.75
21
46.35
0
LINE
8
0
10
8.75
20
46.35
11
-8.75
21
46.35
0
LINE
8
0
10
-8.75
20
46.35
11
-8.75
21
29.85
0
LINE
8
0
10
-8.75
20
48.9
11
8.75
21
48.9
0
LINE
8
0
10
8.75
20
48.9
11
8.75
21
65.4
0
LINE
8
0
10
8.75
20
65.4
11
-8.75
21
65.4
0
LINE
8
0
10
-8.75
20
65.4
11
-8.75
21
48.9
0
LINE
8
0
10
10.25
20
-8.25
11
27.75
21
-8.25
0
LINE
8
0
10
27.75
20
-8.25
11
27.75
21
8.25
0
LINE
8
0
10
27.75
20
8.25
11
10.25
21
8.25
0
LINE
8
0
10
10.25
20
8.25
11
10.25
21
-8.25
0
LINE
8
0
10
10.25
20
10.8
11
27.75
21
10.8
0
LINE
8
0
10
27.75
20
10.8
11
27.75
21
27.3
0
LINE
8
0
10
27.75
20
27.3
11
10.25
21
27.3
0
LINE
8
0
10
10.25
20
27.3
11
10.25
21
10.8
0
LINE
8
0
10
10.25
20
29.85
11
27.75
21
29.85
0
LINE
8
0
10
27.75
20
29.85
11
27.75
21
46.35
0
LINE
8
0
10
27.75
20
46.35
11
10.25
21
46.35
0
LINE
8
0
10
10.25
20
46.35
11
10.25
21
29.85
0
LINE
8
0
10
10.25
20
48.9
11
27.75
21
48.9
0
LINE
8
0
10
27.75
20
48.9
11
27.75
21
65.4
0
LINE
8
0
10
27.75
20
65.4
11
10.25
21
65.4
0
LINE
8
0
10
10.25
20
65.4
11
10.25
21
48.9
0
LINE
8
0
10
29.25
20
-3.4875
11
46.75
21
-3.4875
0
LINE
8
0
10
46.75
20
-3.4875
11
46.75
21
13.0125
0
LINE
8
0
10
46.75
20
13.0125
11
29.25
21
13.0125
0
LINE
8
0
10
29.25
20
13.0125
11
29.25
21
-3.4875
0
LINE
8
0
10
29.25
20
15.5625
11
46.75
21
15.5625
0
LINE
8
0
10
46.75
20
15.5625
11
46.75
21
32.0625
0
LINE
8
0
10
46.75
20
32.0625
11
29.25
21
32.0625
0
LINE
8
0
10
29.25
20
32.0625
11
29.25
21
15.5625
0
LINE
8
0
10
29.25
20
34.6125
11
46.75
21
34.6125
0
LINE
8
0
10
46.75
20
34.6125
11
46.75
21
51.1125
0
LINE
8
0
10
46.75
20
51.1125
11
29.25
21
51.1125
0
LINE
8
0
10
29.25
20
51.1125
11
29.25
21
34.6125
0
LINE
8
0
10
29.25
20
53.6625
11
46.75
21
53.6625
0
LINE
8
0
10
46.75
20
53.6625
11
46.75
21
70.1625
0
LINE
8
0
10
46.75
20
70.1625
11
29.25
21
70.1625
0
LINE
8
0
10
29.25
20
70.1625
11
29.25
21
53.6625
0
LINE
8
0
10
48.25
20
0.3225
11
65.75
21
0.3225
0
LINE
8
0
10
65.75
20
0.3225
11
65.75
21
16.8225
0
LINE
8
0
10
65.75
20
16.8225
11
48.25
21
16.8225
0
LINE
8
0
10
48.25
20
16.8225
11
48.25
21
0.3225
0
LINE
8
0
10
48.25
20
19.3725
11
65.75
21
19.3725
0
LINE
8
0
10
65.75
20
19.3725
11
65.75
21
35.8725
0
LINE
8
0
10
65.75
20
35.8725
11
48.25
21
35.8725
0
LINE
8
0
10
48.25
20
35.8725
11
48.25
21
19.3725
0
LINE
8
0
10
48.25
20
38.4225
11
65.75
21
38.4225
0
LINE
8
0
10
65.75
20
38.4225
11
65.75
21
54.9225
0
LINE
8
0
10
65.75
20
54.9225
11
48.25
21
54.9225
0
LINE
8
0
10
48.25
20
54.9225
11
48.25
21
38.4225
0
LINE
8
0
10
48.25
20
57.4725
11
65.75
21
57.4725
0
LINE
8
0
10
65.75
20
57.4725
11
65.75
21
73.9725
0
LINE
8
0
10
65.75
20
73.9725
11
48.25
21
73.9725
0
LINE
8
0
10
48.25
20
73.9725
11
48.25
21
57.4725
0
LINE
8
0
10
67.25
20
-6.345
11
84.75
21
-6.345
0
LINE
8
0
10
84.75
20
-6.345
11
84.75
21
10.155
0
LINE
8
0
10
84.75
20
10.155
11
67.25
21
10.155
0
LINE
8
0
10
67.25
20
10.155
11
67.25
21
-6.345
0
LINE
8
0
10
67.25
20
12.705
11
84.75
21
12.705
0
LINE
8
0
10
84.75
20
12.705
11
84.75
21
29.205
0
LINE
8
0
10
84.75
20
29.205
11
67.25
21
29.205
0
LINE
8
0
10
67.25
20
29.205
11
67.25
21
12.705
0
LINE
8
0
10
67.25
20
31.755
11
84.75
21
31.755
0
LINE
8
0
10
84.75
20
31.755
11
84.75
21
48.255
0
LINE
8
0
10
84.75
20
48.255
11
67.25
21
48.255
0
LINE
8
0
10
67.25
20
48.255
11
67.25
21
31.755
0
LINE
8
0
10
67.25
20
50.805
11
84.75
21
50.805
0
LINE
8
0
10
84.75
20
50.805
11
84.75
21
67.305
0
LINE
8
0
10
84.75
20
67.305
11
67.25
21
67.305
0
LINE
8
0
10
67.25
20
67.305
11
67.25
21
50.805
0
LINE
8
0
10
86.25
20
-10.155
11
103.75
21
-10.155
0
LINE
8
0
10
103.75
20
-10.155
11
103.75
21
6.345
0
LINE
8
0
10
103.75
20
6.345
11
86.25
21
6.345
0
LINE
8
0
10
86.25
20
6.345
11
86.25
21
-10.155
0
LINE
8
0
10
86.25
20
8.895
11
103.75
21
8.895
0
LINE
8
0
10
103.75
20
8.895
11
103.75
21
25.395
0
LINE
8
0
10
103.75
20
25.395
11
86.25
21
25.395
0
LINE
8
0
10
86.25
20
25.395
11
86.25
21
8.895
0
LINE
8
0
10
86.25
20
27.945
11
103.75
21
27.945
0
LINE
8
0
10
103.75
20
27.945
11
103.75
21
44.445
0
LINE
8
0
10
103.75
20
44.445
11
86.25
21
44.445
0
LINE
8
0
10
86.25
20
44.445
11
86.25
21
27.945
0
LINE
8
0
10
86.25
20
46.995
11
103.75
21
46.995
0
LINE
8
0
10
103.75
20
46.995
11
103.75
21
63.495
0
LINE
8
0
10
103.75
20
63.495
11
86.25
21
63.495
0
LINE
8
0
10
86.25
20
63.495
11
86.25
21
46.995
0
LINE
8
0
10
83.3472777
20
-29.4397096
11
98.5027223
21
-38.1897096
0
LINE
8
0
10
98.5027223
20
-38.1897096
11
106.7527223
21
-23.9002904
0
LINE
8
0
10
106.7527223
20
-23.9002904
11
91.5972777
21
-15.1502904
0
LINE
8
0
10
91.5972777
20
-15.1502904
11
83.3472777
21
-29.4397096
0
LINE
8
0
10
99.8450616
20
-38.9647096
11
115.0005062
21
-47.7147096
0
LINE
8
0
10
115.0005062
20
-47.7147096
11
123.2505062
21
-33.4252904
0
LINE
8
0
10
123.2505062
20
-33.4252904
11
108.0950616
21
-24.6752904
0
LINE
8
0
10
108.0950616
20
-24.6752904
11
99.8450616
21
-38.9647096
0
ENDSEC
0
EOF