0
SECTION
2
HEADER
9
$INSUNITS
70
4
0
ENDSEC
0
SECTION
2
TABLES
0
TABLE
2
LTYPE
0
LTYPE
72
65
70
64
2
CONTINUOUS
3
______
73
0
40
0
0
ENDTAB
0
TABLE
2
LAYER
0
ENDTAB
0
ENDSEC
0
SECTION
2
ENTITIES
0
LINE
8
0
10
-9
20
9
11
9
21
9
0
LINE
8
0
10
9
20
9
11
9
21
-9
0
LINE
8
0
10
9
20
-9
11
-9
21
-9
0
LINE
8
0
10
-9
20
-9
11
-9
21
9
0
LINE
8
0
10
-9
20
28.05
11
9
21
28.05
0
LINE
8
0
10
9
20
28.05
11
9
21
10.05
0
LINE
8
0
10
9
20
10.05
11
-9
21
10.05
0
LINE
8
0
10
-9
20
10.05
11
-9
21
28.05
0
LINE
8
0
10
-9
20
47.1
11
9
21
47.1
0
LINE
8
0
10
9
20
47.1
11
9
21
29.1
0
LINE
8
0
10
9
20
29.1
11
-9
21
29.1
0
LINE
8
0
10
-9
20
29.1
11
-9
21
47.1
0
LINE
8
0
10
-9
20
66.15
11
9
21
66.15
0
LINE
8
0
10
9
20
66.15
11
9
21
48.15
0
LINE
8
0
10
9
20
48.15
11
-9
21
48.15
0
LINE
8
0
10
-9
20
48.15
11
-9
21
66.15
0
LINE
8
0
10
10
20
9
11
28
21
9
0
LINE
8
0
10
28
20
9
11
28
21
-9
0
LINE
8
0
10
28
20
-9
11
10
21
-9
0
LINE
8
0
10
10
20
-9
11
10
21
9
0
LINE
8
0
10
10
20
28.05
11
28
21
28.05
0
LINE
8
0
10
28
20
28.05
11
28
21
10.05
0
LINE
8
0
10
28
20
10.05
11
10
21
10.05
0
LINE
8
0
10
10
20
10.05
11
10
21
28.05
0
LINE
8
0
10
10
20
47.1
11
28
21
47.1
0
LINE
8
0
10
28
20
47.1
11
28
21
29.1
0
LINE
8
0
10
28
20
29.1
11
10
21
29.1
0
LINE
8
0
10
10
20
29.1
11
10
21
47.1
0
LINE
8
0
10
10
20
66.15
11
28
21
66.15
0
LINE
8
0
10
28
20
66.15
11
28
21
48.15
0
LINE
8
0
10
28
20
48.15
11
10
21
48.15
0
LINE
8
0
10
10
20
48.15
11
10
21
66.15
0
LINE
8
0
10
29
20
13.7625
11
47
21
13.7625
0
LINE
8
0
10
47
20
13.7625
11
47
21
-4.2375
0
LINE
8
0
10
47
20
-4.2375
11
29
21
-4.2375
0
LINE
8
0
10
29
20
-4.2375
11
29
21
13.7625
0
LINE
8
0
10
29
20
32.8125
11
47
21
32.8125
0
LINE
8
0
10
47
20
32.8125
11
47
21
14.8125
0
LINE
8
0
10
47
20
14.8125
11
29
21
14.8125
0
LINE
8
0
10
29
20
14.8125
11
29
21
32.8125
0
LINE
8
0
10
29
20
51.8625
11
47
21
51.8625
0
LINE
8
0
10
47
20
51.8625
11
47
21
33.8625
0
LINE
8
0
10
47
20
33.8625
11
29
21
33.8625
0
LINE
8
0
10
29
20
33.8625
11
29
21
51.8625
0
LINE
8
0
10
29
20
70.9125
11
47
21
70.9125
0
LINE
8
0
10
47
20
70.9125
11
47
21
52.9125
0
LINE
8
0
10
47
20
52.9125
11
29
21
52.9125
0
LINE
8
0
10
29
20
52.9125
11
29
21
70.9125
0
LINE
8
0
10
48
20
17.5725
11
66
21
17.5725
0
LINE
8
0
10
66
20
17.5725
11
66
21
-0.4275
0
LINE
8
0
10
66
20
-0.4275
11
48
21
-0.4275
0
LINE
8
0
10
48
20
-0.4275
11
48
21
17.5725
0
LINE
8
0
10
48
20
36.6225
11
66
21
36.6225
0
LINE
8
0
10
66
20
36.6225
11
66
21
18.6225
0
LINE
8
0
10
66
20
18.6225
11
48
21
18.6225
0
LINE
8
0
10
48
20
18.6225
11
48
21
36.6225
0
LINE
8
0
10
48
20
55.6725
11
66
21
55.6725
0
LINE
8
0
10
66
20
55.6725
11
66
21
37.6725
0
LINE
8
0
10
66
20
37.6725
11
48
21
37.6725
0
LINE
8
0
10
48
20
37.6725
11
48
21
55.6725
0
LINE
8
0
10
48
20
74.7225
11
66
21
74.7225
0
LINE
8
0
10
66
20
74.7225
11
66
21
56.7225
0
LINE
8
0
10
66
20
56.7225
11
48
21
56.7225
0
LINE
8
0
10
48
20
56.7225
11
48
21
74.7225
0
LINE
8
0
10
67
20
10.905
11
85
21
10.905
0
LINE
8
0
10
85
20
10.905
11
85
21
-7.095
0
LINE
8
0
10
85
20
-7.095
11
67
21
-7.095
0
LINE
8
0
10
67
20
-7.095
11
67
21
10.905
0
LINE
8
0
10
67
20
29.955
11
85
21
29.955
0
LINE
8
0
10
85
20
29.955
11
85
21
11.955
0
LINE
8
0
10
85
20
11.955
11
67
21
11.955
0
LINE
8
0
10
67
20
11.955
11
67
21
29.955
0
LINE
8
0
10
67
20
49.005
11
85
21
49.005
0
LINE
8
0
10
85
20
49.005
11
85
21
31.005
0
LINE
8
0
10
85
20
31.005
11
67
21
31.005
0
LINE
8
0
10
67
20
31.005
11
67
21
49.005
0
LINE
8
0
10
67
20
68.055
11
85
21
68.055
0
LINE
8
0
10
85
20
68.055
11
85
21
50.055
0
LINE
8
0
10
85
20
50.055
11
67
21
50.055
0
LINE
8
0
10
67
20
50.055
11
67
21
68.055
0
LINE
8
0
10
86
20
7.095
11
104
21
7.095
0
LINE
8
0
10
104
20
7.095
11
104
21
-10.905
0
LINE
8
0
10
104
20
-10.905
11
86
21
-10.905
0
LINE
8
0
10
86
20
-10.905
11
86
21
7.095
0
LINE
8
0
10
86
20
26.145
11
104
21
26.145
0
LINE
8
0
10
104
20
26.145
11
104
21
8.145
0
LINE
8
0
10
104
20
8.145
11
86
21
8.145
0
LINE
8
0
10
86
20
8.145
11
86
21
26.145
0
LINE
8
0
10
86
20
45.195
11
104
21
45.195
0
LINE
8
0
10
104
20
45.195
11
104
21
27.195
0
LINE
8
0
10
104
20
27.195
11
86
21
27.195
0
LINE
8
0
10
86
20
27.195
11
86
21
45.195
0
LINE
8
0
10
86
20
64.245
11
104
21
64.245
0
LINE
8
0
10
104
20
64.245
11
104
21
46.245
0
LINE
8
0
10
104
20
46.245
11
86
21
46.245
0
LINE
8
0
10
86
20
46.245
11
86
21
64.245
0
LINE
8
0
10
91.7557714
20
-14.3757714
11
107.3442286
21
-23.3757714
0
LINE
8
0
10
107.3442286
20
-23.3757714
11
98.3442286
21
-38.9642286
0
LINE
8
0
10
98.3442286
20
-38.9642286
11
82.7557714
21
-29.9642286
0
LINE
8
0
10
82.7557714
20
-29.9642286
11
91.7557714
21
-14.3757714
0
LINE
8
0
10
108.2535553
20
-23.9007714
11
123.8420125
21
-32.9007714
0
LINE
8
0
10
123.8420125
20
-32.9007714
11
114.8420125
21
-48.4892286
0
LINE
8
0
10
114.8420125
20
-48.4892286
11
99.2535553
21
-39.4892286
0
LINE
8
0
10
99.2535553
20
-39.4892286
11
108.2535553
21
-23.9007714
0
ENDSEC
0
EOF